# xmcd
#
# Track frame offsets:
#	150
#	11094
#	22329
#	35472
#	45573
#	61238
#	76257
#	94934
#	111816
#	125508
#	138644
#	151203
#	164437
#	177828
#	193001
#	205913
#	219933
#	234230
#	253827
#	271329
#	286588
#	300487
#	316547
#
# Disc length: 4351 seconds
#
# Revision: 0
# Processed by: cddbd v1.5.1PL0 Copyright (c) Steve Scherf et al.
# Submitted via: dBpowerAMP V4.0
#
DISCID=3710fd17
DTITLE=Rancheras - Para Beber Y Rematar # 2
DYEAR=1900
DGENRE=General sin clasificar
TTITLE0=Alma de Mujer
TTITLE1=Borracho te Recuerdo
TTITLE2=Cajon de Madera
TTITLE3=Cuanto te Debo
TTITLE4=Cuestion Olvidada
TTITLE5=Decision
TTITLE6=Egoismo
TTITLE7=El Emigrante
TTITLE8=El Telefono
TTITLE9=Evocacion
TTITLE10=Ingratitud
TTITLE11=Intenta Vivir Sin Mi
TTITLE12=La Farsante
TTITLE13=La Martina
TTITLE14=La Quita Sueños
TTITLE15=Mi Desesperacion
TTITLE16=Patas Blancas
TTITLE17=Por Quien Doblan Las Campanas
TTITLE18=Predestinacion
TTITLE19=Que de Raro Tiene
TTITLE20=Señor
TTITLE21=Somos Tierra
TTITLE22=Te Amare Toda la Vida
EXTD=
EXTT0=
EXTT1=
EXTT2=
EXTT3=
EXTT4=
EXTT5=
EXTT6=
EXTT7=
EXTT8=
EXTT9=
EXTT10=
EXTT11=
EXTT12=
EXTT13=
EXTT14=
EXTT15=
EXTT16=
EXTT17=
EXTT18=
EXTT19=
EXTT20=
EXTT21=
EXTT22=
PLAYORDER=
